<svg width="63" height="70" viewBox="0 0 63 70" fill="none" xmlns="http://www.w3.org/2000/svg">
<mask id="mask0_0_121" style="mask-type:luminance" maskUnits="userSpaceOnUse" x="0" y="0" width="63" height="60">
<path d="M0 0H62.7428V59.4202H0V0Z" fill="white"/>
</mask>
<g mask="url(#mask0_0_121)">
<path d="M61.6915 18.2666L32.5427 0.351224C31.8272 -0.0879404 30.9197 -0.0879404 30.2048 0.351224L1.05835 18.2666C0.398715 18.6743 -0.00598145 19.3939 -0.00598145 20.1701V57.146C-0.00598145 58.3785 0.994171 59.3787 2.22668 59.3787C3.45979 59.3787 4.45994 58.3785 4.45994 57.146V21.4198L31.3737 4.87657L58.2905 21.4198V57.146C58.2905 58.3785 59.2907 59.3787 60.5238 59.3787C61.7563 59.3787 62.7564 58.3785 62.7564 57.146V20.1701C62.7564 19.3939 62.3517 18.6743 61.6915 18.2666Z" fill="#FFA800"/>
</g>
<path d="M35.2567 66.3488V27.5835C35.2567 26.0869 34.0434 24.8737 32.5468 24.8737C31.0502 24.8737 29.8369 26.0869 29.8369 27.5835V60.787C29.8369 62.7467 28.2898 64.3569 26.3317 64.4352L18.427 64.7514H10.4971C9.04774 64.7514 7.8728 65.9263 7.8728 67.3757C7.8728 68.825 9.04774 70 10.4971 70H31.6055C33.622 70 35.2567 68.3653 35.2567 66.3488Z" fill="black"/>
</svg>
