<svg width="60" height="58" viewBox="0 0 60 58" fill="none" xmlns="http://www.w3.org/2000/svg">
<rect width="60" height="58" rx="29" fill="#38476D" fill-opacity="0.09"/>
<path d="M16.3035 15.4241C16.1696 14.8883 15.6266 14.5626 15.0908 14.6965C14.555 14.8305 14.2293 15.3734 14.3633 15.9092L15.7657 21.5185L17.0708 26.9638C17.6257 29.2793 18.0625 31.1018 18.5808 32.5177C19.1125 33.97 19.7645 35.0975 20.8106 35.9621C20.9009 36.0367 20.9929 36.1093 21.0865 36.1797C22.1711 36.9955 23.4195 37.3667 24.9558 37.5453C26.4534 37.7193 28.3275 37.7193 30.7084 37.7193H31.4998C33.5599 37.7193 35.1815 37.7193 36.4879 37.5872C37.8261 37.4519 38.9271 37.1711 39.9179 36.5507C40.3879 36.2565 40.8246 35.9121 41.2203 35.5236C42.0015 34.7567 42.5163 33.8254 42.9427 32.6667H36.6669C36.1146 32.6667 35.6669 32.219 35.6669 31.6667C35.6669 31.1144 36.1146 30.6667 36.6669 30.6667H43.56C43.723 30.0607 43.8879 29.3958 44.0645 28.6667L32.6669 28.6667C32.1146 28.6667 31.6669 28.219 31.6669 27.6667C31.6669 27.1144 32.1146 26.6667 32.6669 26.6667L44.5433 26.6667C44.7414 25.8223 44.8966 25.098 44.9669 24.4834C45.0626 23.6463 45.0235 22.8493 44.6057 22.1216C44.427 21.8104 44.2035 21.527 43.9425 21.2807C43.3322 20.7048 42.5663 20.481 41.73 20.379C40.9241 20.2807 39.9004 20.2807 38.6583 20.2807L17.5178 20.2807L16.3035 15.4241Z" fill="#2D264B"/>
<path d="M26.5616 42.3333C27.3367 42.3333 27.9651 41.705 27.9651 40.9298C27.9651 40.1547 27.3367 39.5263 26.5616 39.5263C25.7865 39.5263 25.1581 40.1547 25.1581 40.9298C25.1581 41.705 25.7865 42.3333 26.5616 42.3333Z" fill="#2D264B"/>
<path d="M34.9827 42.3333C35.7578 42.3333 36.3862 41.705 36.3862 40.9298C36.3862 40.1547 35.7578 39.5263 34.9827 39.5263C34.2075 39.5263 33.5791 40.1547 33.5791 40.9298C33.5791 41.705 34.2075 42.3333 34.9827 42.3333Z" fill="#2D264B"/>
</svg>
