<svg width="60" height="58" viewBox="0 0 60 58" fill="none" xmlns="http://www.w3.org/2000/svg">
<rect width="60" height="58" rx="29" fill="#38476D" fill-opacity="0.09"/>
<path d="M28.7298 22.3246C28.8186 22.2733 28.9088 22.2273 29.0001 22.1863L29.0001 27.56C26.8307 26.602 26.6275 23.5383 28.7298 22.3246Z" fill="#2D264B"/>
<path d="M31.0001 35.8138L31.0001 30.44C33.1696 31.3979 33.3728 34.4617 31.2705 35.6754C31.1817 35.7267 31.0915 35.7728 31.0001 35.8138Z" fill="#2D264B"/>
<path fill-rule="evenodd" clip-rule="evenodd" d="M29.9397 16H30.0603C32.509 16 34.4285 16 35.9514 16.165C37.5054 16.3333 38.7646 16.6831 39.8397 17.4642C40.4905 17.9371 41.0629 18.5095 41.5358 19.1603C42.3169 20.2354 42.6667 21.4946 42.835 23.0486C43 24.5715 43 26.4909 43 28.9395V29.0604C43 31.509 43 33.4285 42.835 34.9514C42.6667 36.5054 42.3169 37.7646 41.5358 38.8397C41.0629 39.4905 40.4905 40.0629 39.8397 40.5358C38.7646 41.3169 37.5054 41.6667 35.9514 41.835C34.4285 42 32.5091 42 30.0605 42H29.9396C27.491 42 25.5715 42 24.0486 41.835C22.4946 41.6667 21.2354 41.3169 20.1603 40.5358C19.5095 40.0629 18.9371 39.4905 18.4642 38.8397C17.6831 37.7646 17.3333 36.5054 17.165 34.9514C17 33.4285 17 31.509 17 29.0603V28.9397C17 26.491 17 24.5715 17.165 23.0486C17.3333 21.4946 17.6831 20.2354 18.4642 19.1603C18.9371 18.5095 19.5095 17.9371 20.1603 17.4642C21.2354 16.6831 22.4946 16.3333 24.0486 16.165C25.5715 16 27.491 16 29.9397 16ZM31.0001 19.6667C31.0001 19.1144 30.5524 18.6667 30.0001 18.6667C29.4478 18.6667 29.0001 19.1144 29.0001 19.6667V20.0774C28.5644 20.1867 28.1368 20.3575 27.7298 20.5925C24.1006 22.6878 24.5619 28.0652 28.4949 29.5118L29.0001 29.6977L29.0001 35.9593C28.2869 35.7581 27.6497 35.2893 27.2507 34.5983L26.75 33.731C26.4738 33.2527 25.8622 33.0888 25.384 33.365C24.9057 33.6411 24.7418 34.2527 25.0179 34.731L25.5187 35.5983C26.29 36.9343 27.5903 37.7728 29.0001 38.0046L29.0001 38.3333C29.0001 38.8856 29.4478 39.3333 30.0001 39.3333C30.5524 39.3333 31.0001 38.8856 31.0001 38.3333L31.0001 37.9226C31.4358 37.8133 31.8634 37.6425 32.2705 37.4075C35.8996 35.3122 35.4384 29.9348 31.5054 28.4882L31.0001 28.3023L31.0001 22.0407C31.7133 22.2418 32.3506 22.7106 32.7495 23.4017L33.2503 24.269C33.5264 24.7473 34.138 24.9112 34.6163 24.635C35.0946 24.3589 35.2585 23.7473 34.9824 23.269L34.4816 22.4017C33.7103 21.0657 32.4099 20.2271 31.0001 19.9953V19.6667Z" fill="#2D264B"/>
</svg>
