<svg width="60" height="58" viewBox="0 0 60 58" fill="none" xmlns="http://www.w3.org/2000/svg">
<rect width="60" height="58" rx="29" fill="#38476D" fill-opacity="0.09"/>
<path d="M28.3333 33C28.3333 32.0795 29.0795 31.3334 30 31.3334C30.9205 31.3334 31.6667 32.0795 31.6667 33C31.6667 33.9205 30.9205 34.6667 30 34.6667C29.0795 34.6667 28.3333 33.9205 28.3333 33Z" fill="#2D264B"/>
<path fill-rule="evenodd" clip-rule="evenodd" d="M30 14.6667C25.7658 14.6667 22.3333 18.0992 22.3333 22.3334V23.8183C22.3333 23.9074 22.345 23.9937 22.3668 24.0759C20.452 24.7795 18.9596 26.3243 18.3263 28.2732C18 29.2775 18 30.5183 18 33C18 35.4817 18 36.7226 18.3263 37.7268C18.9857 39.7564 20.577 41.3476 22.6066 42.0071C23.6108 42.3334 24.8516 42.3334 27.3333 42.3334H32.6667C35.1484 42.3334 36.3892 42.3334 37.3934 42.0071C39.423 41.3476 41.0143 39.7564 41.6737 37.7268C42 36.7226 42 35.4817 42 33C42 30.5183 42 29.2775 41.6737 28.2732C41.0405 26.3243 39.548 24.7795 37.6332 24.0759C37.655 23.9937 37.6667 23.9074 37.6667 23.8183V22.3334C37.6667 18.0992 34.2342 14.6667 30 14.6667ZM32.6667 23.6667C33.9537 23.6667 34.907 23.6667 35.6667 23.7122V22.3334C35.6667 19.2037 33.1296 16.6667 30 16.6667C26.8704 16.6667 24.3333 19.2037 24.3333 22.3334V23.7122C25.093 23.6667 26.0463 23.6667 27.3333 23.6667H32.6667ZM26.3333 33C26.3333 30.975 27.975 29.3334 30 29.3334C32.025 29.3334 33.6667 30.975 33.6667 33C33.6667 35.0251 32.025 36.6667 30 36.6667C27.975 36.6667 26.3333 35.0251 26.3333 33Z" fill="#2D264B"/>
</svg>
